<svg width="41" height="41" viewBox="0 0 41 41" fill="none" xmlns="http://www.w3.org/2000/svg">
<g clip-path="url(#clip0_1_63)">
<path d="M20.5 25.625C23.3305 25.625 25.625 23.3305 25.625 20.5C25.625 17.6695 23.3305 15.375 20.5 15.375C17.6696 15.375 15.375 17.6695 15.375 20.5C15.375 23.3305 17.6696 25.625 20.5 25.625Z" stroke="#6B2626" stroke-width="4" stroke-linecap="round" stroke-linejoin="round"/>
<path d="M33.1417 25.625C32.9143 26.1403 32.8465 26.7118 32.9469 27.266C33.0474 27.8202 33.3116 28.3315 33.7055 28.7342L33.808 28.8367C34.1256 29.154 34.3776 29.5308 34.5496 29.9456C34.7215 30.3604 34.81 30.805 34.81 31.254C34.81 31.703 34.7215 32.1476 34.5496 32.5623C34.3776 32.9771 34.1256 33.3539 33.808 33.6712C33.4906 33.9889 33.1138 34.2409 32.699 34.4129C32.2843 34.5848 31.8397 34.6733 31.3907 34.6733C30.9417 34.6733 30.4971 34.5848 30.0823 34.4129C29.6675 34.2409 29.2907 33.9889 28.9734 33.6712L28.8709 33.5687C28.4683 33.1749 27.9569 32.9107 27.4027 32.8102C26.8485 32.7098 26.277 32.7776 25.7617 33.005C25.2564 33.2216 24.8255 33.5811 24.522 34.0395C24.2185 34.4978 24.0556 35.0349 24.0534 35.5846V35.875C24.0534 36.7812 23.6934 37.6502 23.0527 38.2909C22.4119 38.9317 21.5429 39.2917 20.6367 39.2917C19.7306 39.2917 18.8615 38.9317 18.2208 38.2909C17.58 37.6502 17.22 36.7812 17.22 35.875V35.7212C17.2068 35.1558 17.0238 34.6074 16.6947 34.1474C16.3657 33.6873 15.9059 33.3369 15.375 33.1417C14.8598 32.9143 14.2882 32.8464 13.734 32.9469C13.1799 33.0474 12.6685 33.3116 12.2659 33.7054L12.1634 33.8079C11.8461 34.1256 11.4692 34.3776 11.0545 34.5495C10.6397 34.7215 10.1951 34.81 9.74608 34.81C9.29708 34.81 8.85248 34.7215 8.4377 34.5495C8.02293 34.3776 7.64611 34.1256 7.32879 33.8079C7.01112 33.4906 6.75911 33.1138 6.58717 32.699C6.41523 32.2842 6.32673 31.8396 6.32673 31.3906C6.32673 30.9416 6.41523 30.497 6.58717 30.0822C6.75911 29.6675 7.01112 29.2906 7.32879 28.9733L7.43129 28.8708C7.82512 28.4682 8.08932 27.9568 8.1898 27.4027C8.29028 26.8485 8.22245 26.2769 7.99504 25.7617C7.77849 25.2564 7.41891 24.8255 6.96059 24.5219C6.50226 24.2184 5.96518 24.0555 5.41546 24.0533H5.12504C4.21888 24.0533 3.34984 23.6934 2.70909 23.0526C2.06834 22.4119 1.70837 21.5428 1.70837 20.6367C1.70837 19.7305 2.06834 18.8615 2.70909 18.2207C3.34984 17.58 4.21888 17.22 5.12504 17.22H5.27879C5.84424 17.2068 6.39263 17.0237 6.85268 16.6947C7.31272 16.3657 7.66314 15.9058 7.85837 15.375C8.08578 14.8597 8.15361 14.2882 8.05313 13.734C7.95265 13.1798 7.68846 12.6685 7.29462 12.2658L7.19212 12.1633C6.87445 11.846 6.62244 11.4692 6.4505 11.0544C6.27856 10.6396 6.19006 10.195 6.19006 9.74604C6.19006 9.29704 6.27856 8.85244 6.4505 8.43766C6.62244 8.02289 6.87445 7.64607 7.19212 7.32875C7.50944 7.01108 7.88626 6.75907 8.30104 6.58713C8.71581 6.41519 9.16041 6.32669 9.60942 6.32669C10.0584 6.32669 10.503 6.41519 10.9178 6.58713C11.3326 6.75907 11.7094 7.01108 12.0267 7.32875L12.1292 7.43125C12.5318 7.82508 13.0432 8.08928 13.5974 8.18976C14.1515 8.29024 14.7231 8.22241 15.2384 7.995H15.375C15.8803 7.77845 16.3112 7.41887 16.6148 6.96055C16.9183 6.50222 17.0812 5.96514 17.0834 5.41542V5.125C17.0834 4.21884 17.4433 3.3498 18.0841 2.70905C18.7248 2.0683 19.5939 1.70833 20.5 1.70833C21.4062 1.70833 22.2752 2.0683 22.916 2.70905C23.5567 3.3498 23.9167 4.21884 23.9167 5.125V5.27875C23.9189 5.82847 24.0818 6.36555 24.3853 6.82388C24.6888 7.28221 25.1198 7.64178 25.625 7.85833C26.1403 8.08574 26.7119 8.15357 27.266 8.05309C27.8202 7.95261 28.3316 7.68842 28.7342 7.29458L28.8367 7.19208C29.154 6.87441 29.5308 6.6224 29.9456 6.45046C30.3604 6.27852 30.805 6.19002 31.254 6.19002C31.703 6.19002 32.1476 6.27852 32.5624 6.45046C32.9772 6.6224 33.354 6.87441 33.6713 7.19208C33.989 7.5094 34.241 7.88622 34.4129 8.301C34.5849 8.71577 34.6734 9.16037 34.6734 9.60938C34.6734 10.0584 34.5849 10.503 34.4129 10.9178C34.241 11.3325 33.989 11.7094 33.6713 12.0267L33.5688 12.1292C33.175 12.5318 32.9108 13.0432 32.8103 13.5973C32.7098 14.1515 32.7776 14.7231 33.005 15.2383V15.375C33.2216 15.8803 33.5812 16.3112 34.0395 16.6147C34.4978 16.9183 35.0349 17.0811 35.5846 17.0833H35.875C36.7812 17.0833 37.6502 17.4433 38.291 18.0841C38.9317 18.7248 39.2917 19.5938 39.2917 20.5C39.2917 21.4062 38.9317 22.2752 38.291 22.9159C37.6502 23.5567 36.7812 23.9167 35.875 23.9167H35.7213C35.1716 23.9189 34.6345 24.0817 34.1762 24.3853C33.7178 24.6888 33.3583 25.1197 33.1417 25.625Z" stroke="#6B2626" stroke-width="4" stroke-linecap="round" stroke-linejoin="round"/>
</g>
<defs>
<clipPath id="clip0_1_63">
<rect width="41" height="41" fill="white"/>
</clipPath>
</defs>
</svg>
