<svg width="78" height="75" viewBox="0 0 78 75" fill="none" xmlns="http://www.w3.org/2000/svg">
<path d="M69.0625 49.0625V18.7109C69.0625 13.1136 64.3618 8.59375 58.5406 8.59375H19.4594C13.6382 8.59375 8.9375 13.1136 8.9375 18.7109V56.2891C8.9375 61.8864 13.6382 66.4062 19.4594 66.4062H51.025L69.0625 49.0625ZM19.4594 60.625C16.9724 60.625 14.95 58.6804 14.95 56.2891V18.7109C14.95 16.3196 16.9724 14.375 19.4594 14.375H58.5406C61.0276 14.375 63.05 16.3196 63.05 18.7109V46.1719H58.5406C52.7194 46.1719 48.0187 50.6918 48.0187 56.2891V60.625H19.4594ZM32.2769 31.0881C31.4844 28.4077 28.5874 26.831 25.7998 27.593C23.0122 28.3551 21.3724 31.1406 22.165 33.8473C22.3836 34.5831 22.7662 35.2401 23.2582 35.7919L32.3862 33.3217C32.5229 32.5859 32.4956 31.8239 32.2769 31.0881ZM51.0797 25.9901C50.3144 23.3097 47.3902 21.733 44.6026 22.495C41.8149 23.2571 40.1752 26.0426 40.9677 28.7493C41.1864 29.4851 41.569 30.142 42.0609 30.6939L51.189 28.2237C51.3256 27.4879 51.2983 26.7259 51.0797 25.9901ZM53.758 35.0298L24.7886 42.8871C28.6968 47.8537 35.4745 50.2713 42.0609 48.4844C48.6473 46.6974 53.102 41.2053 53.758 35.0298Z" fill="#E9A9A9"/>
</svg>
